#N canvas 586 152 598 416 10;
#X text 128 246 client name;
#N canvas 827 157 362 627 addr 0;
#X obj 184 552 outlet;
#X obj 286 29 inlet;
#X obj 41 24 inlet;
#X obj 286 52 symbol;
#X obj 274 269 list length;
#X floatatom 287 292 5 0 0 0 - - -;
#X obj 215 336 list split;
#X obj 211 244 t list list;
#X obj 41 50 list;
#X obj 274 311 - 1;
#X obj 217 404 list prepend set;
#X obj 217 433 list trim;
#X obj 217 369 list prepend;
#X obj 277 491 list;
#X obj 233 459 t b a;
#X obj 50 110 list length;
#X obj 50 73 t list list;
#X obj 39 165 bng 15 250 50 0 empty empty empty 17 7 0 10 -262144 -1
-1;
#X obj 89 164 bng 15 250 50 0 empty empty empty 17 7 0 10 -262144 -1
-1;
#X floatatom 103 132 5 0 0 0 - - -;
#X obj 50 137 moses 2;
#X obj 95 269 list prepend;
#X obj 39 201 list;
#X obj 98 210 list;
#X obj 95 291 list prepend set;
#X obj 96 319 list trim;
#X obj 31 233 t b list;
#X connect 1 0 3 0;
#X connect 2 0 8 0;
#X connect 3 0 12 1;
#X connect 3 0 21 1;
#X connect 4 0 5 0;
#X connect 4 0 9 0;
#X connect 6 0 12 0;
#X connect 6 1 13 1;
#X connect 7 0 6 0;
#X connect 7 1 4 0;
#X connect 8 0 16 0;
#X connect 9 0 6 1;
#X connect 10 0 11 0;
#X connect 11 0 0 0;
#X connect 11 0 14 0;
#X connect 12 0 10 0;
#X connect 13 0 0 0;
#X connect 14 0 13 0;
#X connect 14 1 0 0;
#X connect 15 0 19 0;
#X connect 15 0 20 0;
#X connect 16 0 15 0;
#X connect 16 1 22 1;
#X connect 16 1 23 1;
#X connect 17 0 22 0;
#X connect 18 0 23 0;
#X connect 20 0 17 0;
#X connect 20 1 18 0;
#X connect 21 0 24 0;
#X connect 22 0 26 0;
#X connect 23 0 7 0;
#X connect 24 0 25 0;
#X connect 25 0 0 0;
#X connect 26 0 0 0;
#X connect 26 1 21 0;
#X restore 84 306 pd addr;
#X msg 130 263 symbol tony99;
#N canvas 914 306 337 283 OSC 0;
#X msg 103 192 disconnect;
#X obj 79 218 netsend -u -b;
#X obj 79 84 list prepend send;
#X obj 79 109 list trim;
#X obj 91 147 loadbang;
#X obj 25 19 inlet;
#X obj 25 49 oscformat cuspid;
#X msg 92 169 connect cuspid.net 1984;
#X connect 0 0 1 0;
#X connect 2 0 3 0;
#X connect 3 0 1 0;
#X connect 4 0 7 0;
#X connect 5 0 6 0;
#X connect 6 0 2 0;
#X connect 7 0 1 0;
#X restore 84 343 pd OSC;
#X msg 33 231 nextImage;
#X obj 84 263 r cmd;
#N canvas 4 59 361 328 modes 0;
#X msg 107 257 mode \$1;
#X msg 78 142 up;
#X msg 77 171 down;
#X msg 41 156 left;
#X msg 113 158 right;
#X obj 107 233 symbol;
#X obj 55 36 bng 25 250 50 0 empty empty U 10 12 0 10 -100323 -1 -262144
;
#X obj 108 284 s cmd;
#X msg 188 145 imageSequence;
#X msg 189 170 paletteDown;
#X msg 190 195 paletteUp;
#X msg 271 171 zoomIn;
#X msg 272 196 zoomOut;
#X obj 116 41 bng 20 250 50 0 empty empty paletteUp 23 9 0 10 -162746
-1 -20806;
#X obj 198 41 bng 20 250 50 0 empty empty paletteDown 23 9 0 10 -162746
-1 -20806;
#X obj 116 64 bng 20 250 50 0 empty empty zoomIn 23 9 0 10 -162746
-1 -20806;
#X obj 198 64 bng 20 250 50 0 empty empty zoomOut 23 9 0 10 -162746
-1 -20806;
#X obj 116 87 bng 20 250 50 0 empty empty imageSequence 23 9 0 10 -162746
-1 -20806;
#X obj 29 61 bng 25 250 50 0 empty empty L 10 12 0 10 -100323 -1 -262144
;
#X obj 81 62 bng 25 250 50 0 empty empty R 10 12 0 10 -100323 -1 -262144
;
#X obj 55 87 bng 25 250 50 0 empty empty D 10 12 0 10 -100323 -1 -262144
;
#X connect 0 0 7 0;
#X connect 1 0 5 0;
#X connect 2 0 5 0;
#X connect 3 0 5 0;
#X connect 4 0 5 0;
#X connect 5 0 0 0;
#X connect 6 0 1 0;
#X connect 8 0 5 0;
#X connect 9 0 5 0;
#X connect 10 0 5 0;
#X connect 11 0 5 0;
#X connect 12 0 5 0;
#X connect 13 0 10 0;
#X connect 14 0 9 0;
#X connect 15 0 11 0;
#X connect 16 0 12 0;
#X connect 17 0 8 0;
#X connect 18 0 3 0;
#X connect 19 0 4 0;
#X connect 20 0 2 0;
#X coords 0 -1 1 1 270 100 1 20 20;
#X restore 14 10 pd modes;
#N canvas 561 582 455 355 playback 0;
#X obj 111 293 s cmd, f 6;
#X msg 23 165 togglePause;
#X obj 32 83 tgl 25 0 empty empty play 28 12 0 10 -199979 -1 -1 0 1
;
#X obj 32 52 bng 25 250 50 0 empty empty toggle 28 10 0 10 -199979
-1 -1;
#X text 106 223 stop;
#X text 159 224 go;
#X obj 126 141 select 1 0;
#X msg 276 203 speedUp \$1;
#X floatatom 275 182 5 0 0 0 - - -;
#X floatatom 350 182 5 0 0 0 - - -;
#X msg 350 203 slowDown \$1;
#X obj 275 163 bng 15 250 50 0 empty empty empty 17 7 0 10 -262144
-1 -1;
#X obj 349 163 bng 15 250 50 0 empty empty empty 17 7 0 10 -262144
-1 -1;
#X floatatom 213 183 5 1 1500 0 - - -;
#X obj 212 164 bng 15 250 50 0 empty empty empty 17 7 0 10 -262144
-1 -1;
#X msg 213 204 speed \$1;
#X obj 107 65 hsl 120 15 0 1000 0 0 empty empty speed -2 -8 0 10 -261947
-1 -1 0 1;
#X msg 98 204 pause 1;
#X msg 155 206 pause 0;
#X obj 171 88 bng 20 250 50 0 empty empty speed+ 23 9 0 10 -162746
-1 -20806;
#X msg 273 137 5;
#X obj 106 88 bng 20 250 50 0 empty empty speed- 23 9 0 10 -162746
-1 -20806;
#X msg 349 142 5;
#X connect 1 0 0 0;
#X connect 2 0 6 0;
#X connect 3 0 1 0;
#X connect 6 0 17 0;
#X connect 6 1 18 0;
#X connect 7 0 0 0;
#X connect 8 0 7 0;
#X connect 9 0 10 0;
#X connect 10 0 0 0;
#X connect 11 0 8 0;
#X connect 12 0 9 0;
#X connect 13 0 15 0;
#X connect 14 0 13 0;
#X connect 15 0 0 0;
#X connect 16 0 13 0;
#X connect 17 0 0 0;
#X connect 18 0 0 0;
#X connect 19 0 20 0;
#X connect 20 0 8 0;
#X connect 21 0 22 0;
#X connect 22 0 9 0;
#X coords 0 -1 1 1 215 100 1 25 25;
#X restore 288 10 pd playback;
#N canvas 4 59 584 395 movement 0;
#X msg 122 158 nudgeRight 0.1;
#X msg 32 158 nudgeLeft 0.1;
#X msg 104 209 nudgeUp 0.1;
#X msg 73 185 nudgeDown 0.1;
#X obj 139 291 s cmd;
#X obj 31 67 bng 25 250 50 0 empty empty L 10 12 0 10 -216235 -1 -45076
;
#X obj 83 67 bng 25 250 50 0 empty empty R 10 12 0 10 -216235 -1 -45076
;
#X obj 58 94 bng 25 250 50 0 empty empty D 10 12 0 10 -216235 -1 -45076
;
#X obj 57 42 bng 25 250 50 0 empty empty U 10 12 0 10 -216235 -1 -45076
;
#X obj 117 72 hsl 100 15 1 33 1 0 empty empty zoom -2 -8 0 10 -262144
-1 -1 0 1;
#X text 216 193 zoom;
#X msg 194 212 zoom \$1;
#X floatatom 253 201 5 0 0 0 - - -;
#X connect 0 0 4 0;
#X connect 1 0 4 0;
#X connect 2 0 4 0;
#X connect 3 0 4 0;
#X connect 5 0 1 0;
#X connect 6 0 0 0;
#X connect 7 0 3 0;
#X connect 8 0 2 0;
#X connect 9 0 11 0;
#X connect 9 0 12 0;
#X connect 11 0 4 0;
#X coords 0 -1 1 1 200 100 1 25 25;
#X restore 14 114 pd movement;
#N canvas 117 675 594 342 effects 0;
#X obj 114 251 s cmd;
#N canvas 4 59 435 378 dots 0;
#X obj 50 330 outlet;
#X msg 33 172 toggleDotPass;
#X msg 44 196 dotPass 0;
#X msg 55 220 dotPass 1;
#X floatatom 159 215 5 0 0 0 - - -;
#X obj 158 196 bng 15 250 50 0 empty empty empty 17 7 0 10 -262144
-1 -1;
#X msg 159 233 deltaDotScale \$1;
#X floatatom 271 215 5 0 0 0 - - -;
#X obj 270 196 bng 15 250 50 0 empty empty empty 17 7 0 10 -262144
-1 -1;
#X msg 271 234 dotScale \$1;
#X obj 271 176 hsl 128 15 1 0 0 0 empty empty empty -2 -8 0 10 -204786
-1 -1 0 1;
#X obj 135 175 hsl 128 15 -1 1 0 0 empty empty empty -2 -8 0 10 -204800
-1 -1 0 1;
#X obj 31 69 tgl 16 0 empty empty on/off 18 8 0 10 -199979 -1 -1 0
1;
#X obj 31 48 bng 16 250 50 0 empty empty toggle 18 8 0 10 -199979 -1
-1;
#X obj 55 137 select 0;
#X obj 88 36 vsl 15 60 1 0 0 0 empty empty empty 0 -9 0 10 -224566
-1 -1 0 1;
#X obj 106 34 bng 15 250 50 0 empty empty empty 17 7 0 10 -224566 -1
-1;
#X msg 175 150 0.1;
#X msg 138 150 -0.1;
#X obj 106 84 bng 15 250 50 0 empty empty empty 17 7 0 10 -224566 -1
-1;
#X connect 1 0 0 0;
#X connect 2 0 0 0;
#X connect 3 0 0 0;
#X connect 4 0 6 0;
#X connect 5 0 4 0;
#X connect 6 0 0 0;
#X connect 7 0 9 0;
#X connect 8 0 7 0;
#X connect 9 0 0 0;
#X connect 10 0 7 0;
#X connect 11 0 4 0;
#X connect 12 0 14 0;
#X connect 13 0 1 0;
#X connect 14 0 2 0;
#X connect 14 1 3 0;
#X connect 15 0 10 0;
#X connect 16 0 18 0;
#X connect 17 0 4 0;
#X connect 18 0 4 0;
#X connect 19 0 17 0;
#X coords 0 -1 1 1 100 80 1 25 25;
#X restore 29 42 pd dots;
#N canvas 4 59 308 300 glitch 0;
#X msg 153 137 toggleGlitchPass;
#X msg 153 158 glitchPass 0;
#X msg 154 179 glitchPass 1;
#X obj 95 252 outlet;
#X obj 34 71 tgl 16 0 empty empty on/off 18 8 0 10 -199979 -1 -1 0
1;
#X obj 34 50 bng 16 250 50 0 empty empty toggle 18 8 0 10 -199979 -1
-1;
#X obj 37 124 select 0;
#X connect 0 0 3 0;
#X connect 1 0 3 0;
#X connect 2 0 3 0;
#X connect 4 0 6 0;
#X connect 5 0 0 0;
#X connect 6 0 1 0;
#X connect 6 1 2 0;
#X coords 0 -1 1 1 85 80 1 25 25;
#X restore 132 42 pd glitch;
#X obj 229 69 bng 25 250 50 0 empty empty smoothing -10 -10 0 10 -125422
-1 -1;
#X msg 223 155 toggleInterpolation;
#X connect 1 0 0 0;
#X connect 2 0 0 0;
#X connect 3 0 4 0;
#X connect 4 0 0 0;
#X coords 0 -1 1 1 250 100 1 25 25;
#X restore 218 114 pd effects;
#X msg 11 258 toggleFps;
#X msg 144 287 symbol client6;
#X connect 1 0 3 0;
#X connect 2 0 1 1;
#X connect 4 0 1 0;
#X connect 5 0 1 0;
#X connect 10 0 1 0;
#X connect 11 0 1 1;
