#N canvas 238 100 566 482 10;
#N canvas 914 269 337 283 osc 0;
#X msg 103 192 disconnect;
#X obj 79 218 netsend -u -b;
#X obj 79 84 list prepend send;
#X obj 79 109 list trim;
#X msg 92 169 connect localhost 1984;
#X obj 91 147 loadbang;
#X obj 25 19 inlet;
#X obj 25 49 oscformat cuspid;
#X connect 0 0 1 0;
#X connect 2 0 3 0;
#X connect 3 0 1 0;
#X connect 4 0 1 0;
#X connect 5 0 4 0;
#X connect 6 0 7 0;
#X connect 7 0 2 0;
#X restore 332 361 pd osc;
#X text 372 275 client name;
#X obj 144 183 hsl 128 15 0 2 0 0 empty empty empty -2 -8 0 10 -262144
-1 -1 2900 1;
#X text 163 198 zoom;
#N canvas 603 483 347 443 addr 0;
#X obj 76 388 outlet;
#X obj 201 42 inlet;
#X obj 41 24 inlet;
#X obj 202 81 symbol;
#X obj 104 101 list length;
#X floatatom 117 125 5 0 0 0 - - -, f 5;
#X obj 47 171 list split;
#X obj 41 77 t list list;
#X obj 41 50 list;
#X obj 104 144 - 1;
#X obj 47 237 list prepend set;
#X obj 47 266 list trim;
#X obj 47 207 list prepend;
#X obj 107 324 list;
#X obj 63 292 t b a;
#X connect 1 0 3 0;
#X connect 2 0 8 0;
#X connect 3 0 12 1;
#X connect 4 0 5 0;
#X connect 4 0 9 0;
#X connect 6 0 12 0;
#X connect 6 1 13 1;
#X connect 7 0 6 0;
#X connect 7 1 4 0;
#X connect 8 0 7 0;
#X connect 9 0 6 1;
#X connect 10 0 11 0;
#X connect 11 0 0 0;
#X connect 11 0 14 0;
#X connect 12 0 10 0;
#X connect 13 0 0 0;
#X connect 14 0 13 0;
#X connect 14 1 0 0;
#X restore 332 324 pd addr;
#X msg 250 77 mode up;
#X msg 249 106 mode down;
#X msg 154 228 zoom \$1;
#X msg 332 143 some other silly thing 12;
#X msg 374 292 symbol tony99;
#X connect 2 0 7 0;
#X connect 4 0 0 0;
#X connect 5 0 4 0;
#X connect 6 0 4 0;
#X connect 7 0 4 0;
#X connect 8 0 4 0;
#X connect 9 0 4 1;
