#N canvas 94 168 778 564 10;
#X text 436 423 client name;
#X obj 47 369 hsl 128 15 1 33 1 0 empty empty empty -2 -8 0 10 -262144
-1 -1 0 1;
#X text 66 384 zoom;
#N canvas 827 157 362 627 addr 0;
#X obj 184 552 outlet;
#X obj 286 29 inlet;
#X obj 41 24 inlet;
#X obj 286 52 symbol;
#X obj 274 269 list length;
#X floatatom 287 292 5 0 0 0 - - -, f 5;
#X obj 215 336 list split;
#X obj 211 244 t list list;
#X obj 41 50 list;
#X obj 274 311 - 1;
#X obj 217 404 list prepend set;
#X obj 217 433 list trim;
#X obj 217 369 list prepend;
#X obj 277 491 list;
#X obj 233 459 t b a;
#X obj 50 110 list length;
#X obj 50 73 t list list;
#X obj 39 165 bng 15 250 50 0 empty empty empty 17 7 0 10 -262144 -1
-1;
#X obj 89 164 bng 15 250 50 0 empty empty empty 17 7 0 10 -262144 -1
-1;
#X floatatom 103 132 5 0 0 0 - - -, f 5;
#X obj 50 137 moses 2;
#X obj 95 269 list prepend;
#X obj 39 201 list;
#X obj 98 210 list;
#X obj 95 291 list prepend set;
#X obj 96 319 list trim;
#X obj 31 233 t b list;
#X connect 1 0 3 0;
#X connect 2 0 8 0;
#X connect 3 0 12 1;
#X connect 3 0 21 1;
#X connect 4 0 5 0;
#X connect 4 0 9 0;
#X connect 6 0 12 0;
#X connect 6 1 13 1;
#X connect 7 0 6 0;
#X connect 7 1 4 0;
#X connect 8 0 16 0;
#X connect 9 0 6 1;
#X connect 10 0 11 0;
#X connect 11 0 0 0;
#X connect 11 0 14 0;
#X connect 12 0 10 0;
#X connect 13 0 0 0;
#X connect 14 0 13 0;
#X connect 14 1 0 0;
#X connect 15 0 19 0;
#X connect 15 0 20 0;
#X connect 16 0 15 0;
#X connect 16 1 22 1;
#X connect 16 1 23 1;
#X connect 17 0 22 0;
#X connect 18 0 23 0;
#X connect 20 0 17 0;
#X connect 20 1 18 0;
#X connect 21 0 24 0;
#X connect 22 0 26 0;
#X connect 23 0 7 0;
#X connect 24 0 25 0;
#X connect 25 0 0 0;
#X connect 26 0 0 0;
#X connect 26 1 21 0;
#X restore 326 466 pd addr;
#X msg 44 402 zoom \$1;
#X msg 438 440 symbol tony99;
#N canvas 914 269 337 283 OSC 0;
#X msg 103 192 disconnect;
#X obj 79 218 netsend -u -b;
#X obj 79 84 list prepend send;
#X obj 79 109 list trim;
#X msg 92 169 connect localhost 1984;
#X obj 91 147 loadbang;
#X obj 25 19 inlet;
#X obj 25 49 oscformat cuspid;
#X connect 0 0 1 0;
#X connect 2 0 3 0;
#X connect 3 0 1 0;
#X connect 4 0 1 0;
#X connect 5 0 4 0;
#X connect 6 0 7 0;
#X connect 7 0 2 0;
#X restore 326 503 pd OSC;
#X floatatom 103 392 5 0 0 0 - - -, f 5;
#X msg 412 221 nextImage;
#X msg 419 243 toggleDotPass;
#X msg 552 312 toggleGlitchPass;
#X msg 428 267 dotPass 0;
#X msg 439 291 dotPass 1;
#X msg 552 333 glitchPass 0;
#X msg 553 354 glitchPass 1;
#X floatatom 521 225 5 0 0 0 - - -, f 5;
#X obj 520 206 bng 15 250 50 0 empty empty empty 17 7 0 10 -262144
-1 -1;
#X msg 521 243 deltaDotScale \$1;
#X floatatom 633 225 5 0 0 0 - - -, f 5;
#X obj 632 206 bng 15 250 50 0 empty empty empty 17 7 0 10 -262144
-1 -1;
#X msg 633 244 dotScale \$1;
#X obj 633 186 hsl 128 15 1 0 0 0 empty empty empty -2 -8 0 10 -204786
-1 -1 6300 1;
#X obj 497 185 hsl 128 15 -1 1 0 0 empty empty empty -2 -8 0 10 -204800
-1 -1 9096 1;
#X msg 128 501 nudgeRight 0.1;
#X msg 38 501 nudgeLeft 0.1;
#X msg 88 477 nudgeUp 0.1;
#X msg 87 524 nudgeDown 0.1;
#X obj 306 337 r cmd;
#N canvas 4 59 361 328 modes 0;
#X msg 107 257 mode \$1;
#X msg 78 142 up;
#X msg 77 171 down;
#X msg 41 156 left;
#X msg 113 158 right;
#X obj 107 233 symbol;
#X obj 55 36 bng 25 250 50 0 empty empty U 10 12 0 10 -100323 -1 -262144
;
#X obj 108 284 s cmd;
#X msg 188 145 imageSequence;
#X msg 189 170 paletteDown;
#X msg 190 195 paletteUp;
#X msg 271 171 zoomIn;
#X msg 272 196 zoomOut;
#X obj 116 41 bng 20 250 50 0 empty empty paletteUp 23 9 0 10 -162746
-1 -20806;
#X obj 198 41 bng 20 250 50 0 empty empty paletteDown 23 9 0 10 -162746
-1 -20806;
#X obj 116 64 bng 20 250 50 0 empty empty zoomIn 23 9 0 10 -162746
-1 -20806;
#X obj 198 64 bng 20 250 50 0 empty empty zoomOut 23 9 0 10 -162746
-1 -20806;
#X obj 116 87 bng 20 250 50 0 empty empty imageSequence 23 9 0 10 -162746
-1 -20806;
#X obj 29 61 bng 25 250 50 0 empty empty L 10 12 0 10 -100323 -1 -262144
;
#X obj 81 62 bng 25 250 50 0 empty empty R 10 12 0 10 -100323 -1 -262144
;
#X obj 55 87 bng 25 250 50 0 empty empty D 10 12 0 10 -100323 -1 -262144
;
#X connect 0 0 7 0;
#X connect 1 0 5 0;
#X connect 2 0 5 0;
#X connect 3 0 5 0;
#X connect 4 0 5 0;
#X connect 5 0 0 0;
#X connect 6 0 1 0;
#X connect 8 0 5 0;
#X connect 9 0 5 0;
#X connect 10 0 5 0;
#X connect 11 0 5 0;
#X connect 12 0 5 0;
#X connect 13 0 10 0;
#X connect 14 0 9 0;
#X connect 15 0 11 0;
#X connect 16 0 12 0;
#X connect 17 0 8 0;
#X connect 18 0 3 0;
#X connect 19 0 4 0;
#X connect 20 0 2 0;
#X coords 0 -1 1 1 270 100 1 20 20;
#X restore 14 10 pd modes;
#X text 594 455 TODO: next image;
#N canvas 561 582 557 315 playback 0;
#X obj 116 251 s cmd, f 6;
#X msg 28 123 togglePause;
#X obj 97 53 tgl 25 0 empty empty play 28 12 0 10 -199979 -1 -1 1 1
;
#X obj 32 53 bng 25 250 50 0 empty empty toggle 28 10 0 10 -199979
-1 -1;
#X text 111 181 stop;
#X text 164 182 go;
#X obj 131 99 select 1 0;
#X msg 281 161 speedUp \$1;
#X floatatom 280 140 5 0 0 0 - - -, f 5;
#X floatatom 355 140 5 0 0 0 - - -, f 5;
#X msg 355 161 slowDown \$1;
#X obj 280 121 bng 15 250 50 0 empty empty empty 17 7 0 10 -262144
-1 -1;
#X obj 354 121 bng 15 250 50 0 empty empty empty 17 7 0 10 -262144
-1 -1;
#X floatatom 218 141 5 1 1500 0 - - -, f 5;
#X obj 217 122 bng 15 250 50 0 empty empty empty 17 7 0 10 -262144
-1 -1;
#X msg 218 162 speed \$1;
#X obj 157 64 hsl 100 15 0 1000 0 0 empty empty speed -2 -8 0 10 -261947
-1 -1 100 1;
#X msg 103 162 pause 1;
#X msg 160 164 pause 0;
#X obj 263 36 bng 20 250 50 0 empty empty speed+ 23 9 0 10 -162746
-1 -20806;
#X msg 278 95 5;
#X obj 263 59 bng 20 250 50 0 empty empty speed- 23 9 0 10 -162746
-1 -20806;
#X msg 354 100 5;
#X connect 1 0 0 0;
#X connect 2 0 6 0;
#X connect 3 0 1 0;
#X connect 6 0 17 0;
#X connect 6 1 18 0;
#X connect 7 0 0 0;
#X connect 8 0 7 0;
#X connect 9 0 10 0;
#X connect 10 0 0 0;
#X connect 11 0 8 0;
#X connect 12 0 9 0;
#X connect 13 0 15 0;
#X connect 14 0 13 0;
#X connect 15 0 0 0;
#X connect 16 0 13 0;
#X connect 17 0 0 0;
#X connect 18 0 0 0;
#X connect 19 0 20 0;
#X connect 20 0 8 0;
#X connect 21 0 22 0;
#X connect 22 0 9 0;
#X coords 0 -1 1 1 300 60 1 25 25;
#X restore 301 27 pd playback;
#X connect 1 0 4 0;
#X connect 1 0 7 0;
#X connect 3 0 6 0;
#X connect 4 0 3 0;
#X connect 5 0 3 1;
#X connect 8 0 3 0;
#X connect 9 0 3 0;
#X connect 10 0 3 0;
#X connect 11 0 3 0;
#X connect 12 0 3 0;
#X connect 13 0 3 0;
#X connect 14 0 3 0;
#X connect 15 0 17 0;
#X connect 16 0 15 0;
#X connect 17 0 3 0;
#X connect 18 0 20 0;
#X connect 19 0 18 0;
#X connect 20 0 3 0;
#X connect 21 0 18 0;
#X connect 22 0 15 0;
#X connect 23 0 3 0;
#X connect 24 0 3 0;
#X connect 25 0 3 0;
#X connect 26 0 3 0;
#X connect 27 0 3 0;
