#N canvas 94 168 778 482 10;
#X text 416 386 client name;
#X obj 47 369 hsl 128 15 1 33 1 0 empty empty empty -2 -8 0 10 -262144
-1 -1 0 1;
#X text 66 384 zoom;
#N canvas 827 157 362 627 addr 0;
#X obj 184 552 outlet;
#X obj 286 29 inlet;
#X obj 41 24 inlet;
#X obj 286 52 symbol;
#X obj 274 269 list length;
#X floatatom 287 292 5 0 0 0 - - -, f 5;
#X obj 215 336 list split;
#X obj 211 244 t list list;
#X obj 41 50 list;
#X obj 274 311 - 1;
#X obj 217 404 list prepend set;
#X obj 217 433 list trim;
#X obj 217 369 list prepend;
#X obj 277 491 list;
#X obj 233 459 t b a;
#X obj 50 110 list length;
#X obj 50 73 t list list;
#X obj 39 165 bng 15 250 50 0 empty empty empty 17 7 0 10 -262144 -1
-1;
#X obj 89 164 bng 15 250 50 0 empty empty empty 17 7 0 10 -262144 -1
-1;
#X floatatom 103 132 5 0 0 0 - - -, f 5;
#X obj 50 137 moses 2;
#X obj 95 269 list prepend;
#X obj 39 201 list;
#X obj 98 210 list;
#X obj 95 291 list prepend set;
#X obj 96 319 list trim;
#X obj 31 233 t b list;
#X connect 1 0 3 0;
#X connect 2 0 8 0;
#X connect 3 0 12 1;
#X connect 3 0 21 1;
#X connect 4 0 5 0;
#X connect 4 0 9 0;
#X connect 6 0 12 0;
#X connect 6 1 13 1;
#X connect 7 0 6 0;
#X connect 7 1 4 0;
#X connect 8 0 16 0;
#X connect 9 0 6 1;
#X connect 10 0 11 0;
#X connect 11 0 0 0;
#X connect 11 0 14 0;
#X connect 12 0 10 0;
#X connect 13 0 0 0;
#X connect 14 0 13 0;
#X connect 14 1 0 0;
#X connect 15 0 19 0;
#X connect 15 0 20 0;
#X connect 16 0 15 0;
#X connect 16 1 22 1;
#X connect 16 1 23 1;
#X connect 17 0 22 0;
#X connect 18 0 23 0;
#X connect 20 0 17 0;
#X connect 20 1 18 0;
#X connect 21 0 24 0;
#X connect 22 0 26 0;
#X connect 23 0 7 0;
#X connect 24 0 25 0;
#X connect 25 0 0 0;
#X connect 26 0 0 0;
#X connect 26 1 21 0;
#X restore 327 417 pd addr;
#X msg 44 402 zoom \$1;
#X msg 418 403 symbol tony99;
#N canvas 914 269 337 283 OSC 0;
#X msg 103 192 disconnect;
#X obj 79 218 netsend -u -b;
#X obj 79 84 list prepend send;
#X obj 79 109 list trim;
#X msg 92 169 connect localhost 1984;
#X obj 91 147 loadbang;
#X obj 25 19 inlet;
#X obj 25 49 oscformat cuspid;
#X connect 0 0 1 0;
#X connect 2 0 3 0;
#X connect 3 0 1 0;
#X connect 4 0 1 0;
#X connect 5 0 4 0;
#X connect 6 0 7 0;
#X connect 7 0 2 0;
#X restore 327 454 pd OSC;
#X msg 375 144 togglePause;
#X msg 383 163 pause 0;
#X msg 392 185 pause 1;
#X msg 17 197 speedUp \$1;
#X floatatom 17 176 5 0 0 0 - - -, f 5;
#X floatatom 92 176 5 0 0 0 - - -, f 5;
#X msg 92 197 slowDown \$1;
#X obj 17 157 bng 15 250 50 0 empty empty empty 17 7 0 10 -262144 -1
-1;
#X obj 91 157 bng 15 250 50 0 empty empty empty 17 7 0 10 -262144 -1
-1;
#X floatatom 170 176 5 1 1500 0 - - -, f 5;
#X obj 169 157 bng 15 250 50 0 empty empty empty 17 7 0 10 -262144
-1 -1;
#X msg 170 197 speed \$1;
#X msg 240 135 mode \$1;
#X msg 299 34 imageSequence;
#X msg 211 20 up;
#X msg 210 49 down;
#X msg 174 34 left;
#X msg 246 36 right;
#X obj 240 111 symbol;
#X floatatom 103 392 5 0 0 0 - - -, f 5;
#X msg 300 59 paletteDown;
#X msg 301 84 paletteUp;
#X msg 382 60 zoomIn;
#X msg 383 85 zoomOut;
#X msg 412 221 nextImage;
#X msg 419 243 toggleDotPass;
#X msg 449 317 toggleGlitchPass;
#X msg 428 267 dotPass 0;
#X msg 439 291 dotPass 1;
#X msg 462 341 glitchPass 0;
#X msg 483 364 glitchPass 1;
#X floatatom 521 225 5 0 0 0 - - -, f 5;
#X obj 520 206 bng 15 250 50 0 empty empty empty 17 7 0 10 -262144
-1 -1;
#X msg 521 243 deltaDotScale \$1;
#X floatatom 633 225 5 0 0 0 - - -, f 5;
#X obj 632 206 bng 15 250 50 0 empty empty empty 17 7 0 10 -262144
-1 -1;
#X msg 633 244 dotScale \$1;
#X obj 633 186 hsl 128 15 1 0 0 0 empty empty empty -2 -8 0 10 -204786
-1 -1 9200 1;
#X obj 497 185 hsl 128 15 -1 1 0 0 empty empty empty -2 -8 0 10 -204800
-1 -1 5400 1;
#X connect 1 0 4 0;
#X connect 1 0 26 0;
#X connect 3 0 6 0;
#X connect 4 0 3 0;
#X connect 5 0 3 1;
#X connect 7 0 3 0;
#X connect 8 0 3 0;
#X connect 9 0 3 0;
#X connect 10 0 3 0;
#X connect 11 0 10 0;
#X connect 12 0 13 0;
#X connect 13 0 3 0;
#X connect 14 0 11 0;
#X connect 15 0 12 0;
#X connect 16 0 18 0;
#X connect 17 0 16 0;
#X connect 18 0 3 0;
#X connect 19 0 3 0;
#X connect 20 0 25 0;
#X connect 21 0 25 0;
#X connect 22 0 25 0;
#X connect 23 0 25 0;
#X connect 24 0 25 0;
#X connect 25 0 19 0;
#X connect 27 0 25 0;
#X connect 28 0 25 0;
#X connect 29 0 25 0;
#X connect 30 0 25 0;
#X connect 31 0 3 0;
#X connect 32 0 3 0;
#X connect 33 0 3 0;
#X connect 34 0 3 0;
#X connect 35 0 3 0;
#X connect 36 0 3 0;
#X connect 37 0 3 0;
#X connect 38 0 40 0;
#X connect 39 0 38 0;
#X connect 40 0 3 0;
#X connect 41 0 43 0;
#X connect 42 0 41 0;
#X connect 43 0 3 0;
#X connect 44 0 41 0;
#X connect 45 0 38 0;
